<?xml version="1.0" encoding="UTF-8"?>
<svg xmlns="http://www.w3.org/2000/svg" xmlns:xlink="http://www.w3.org/1999/xlink" viewBox="0 0 16 16" width="16px" height="16px">
<g id="surface792902">
<path style=" stroke:none;fill-rule:nonzero;fill:rgb(100%,100%,100%);fill-opacity:1;" d="M 2.664062 14 C 2.378906 14 2.089844 13.90625 1.84375 13.714844 C 1.265625 13.261719 1.199219 12.40625 1.636719 11.820312 L 4.464844 8 L 1.640625 4.1875 C 1.210938 3.605469 1.257812 2.765625 1.816406 2.308594 C 2.410156 1.816406 3.285156 1.929688 3.738281 2.539062 L 7.570312 7.714844 C 7.636719 7.796875 7.667969 7.898438 7.667969 8 C 7.667969 8.101562 7.636719 8.203125 7.570312 8.285156 L 3.738281 13.460938 C 3.476562 13.8125 3.074219 14 2.664062 14 Z M 2.664062 14 "/>
<path style=" stroke:none;fill-rule:nonzero;fill:rgb(100%,100%,100%);fill-opacity:1;" d="M 13.351562 14 C 13.640625 14 13.929688 13.90625 14.175781 13.714844 C 14.753906 13.261719 14.820312 12.40625 14.382812 11.820312 L 11.554688 8 L 14.378906 4.1875 C 14.808594 3.605469 14.757812 2.765625 14.203125 2.308594 C 13.609375 1.816406 12.734375 1.929688 12.28125 2.539062 L 8.445312 7.714844 C 8.382812 7.796875 8.351562 7.898438 8.351562 8 C 8.351562 8.101562 8.382812 8.203125 8.445312 8.285156 L 12.28125 13.460938 C 12.542969 13.8125 12.945312 14 13.351562 14 Z M 13.351562 14 "/>
</g>
</svg>
